<svg xmlns="http://www.w3.org/2000/svg" viewBox="0 0 1096 780"><title>background_new_year</title><g style="isolation:isolate"><g id="_1" data-name="1"><rect width="1096" height="777.53" style="fill:#ed1c24"/></g><g id="_2" data-name="2"><rect x="968.12" y="427.65" width="4.02" height="17.6" style="fill:none"/><rect x="995.66" y="427.65" width="8.17" height="17.6" style="fill:none"/><rect x="1027.35" y="427.65" width="8.61" height="17.6" style="fill:none"/><rect x="979.82" y="427.65" width="8.17" height="17.6" style="fill:none"/><rect x="1011.5" y="427.65" width="8.17" height="17.6" style="fill:none"/><path d="M297.49,436.5a3.94,3.94,0,0,0,.65,4c1.8,1.8,5.15,2.32,7.08,5.08a46.43,46.43,0,0,0,2.85-9.08Z" transform="translate(0)" style="fill:none"/><path d="M310.55,444.48a16.86,16.86,0,0,0,7.48-8h-5.47C312.18,438.37,311.55,441,310.55,444.48Z" transform="translate(0)" style="fill:none"/><path d="M279.39,488c18.28.18,53-6.12,63.06-13.88-1-2.81-3-7.3-6.31-8.64-2.09-.83-3.64-2.89-4.76-5H314.64c-3.88-5.43-.23-9.06,1.83-13.52a20.9,20.9,0,0,1-8.33,5c-4.19,12.1-15.31,19-27.31,22.31A49.9,49.9,0,0,1,279.39,488Z" transform="translate(0)" style="fill:none"/><path d="M952.28,471.65A28.38,28.38,0,0,0,924,500v30.17a28.3,28.3,0,0,0,.25,3.71,374.45,374.45,0,0,1,56.33-5.45V500A28.38,28.38,0,0,0,952.28,471.65Z" transform="translate(0)" style="fill:none"/><rect x="875.39" y="427.65" width="8.11" height="17.6" style="fill:none"/><rect x="1043.63" y="427.65" width="8.17" height="17.6" style="fill:none"/><rect x="1011.5" y="362.01" width="8.17" height="23.14" style="fill:none"/><rect x="995.66" y="362.01" width="8.17" height="23.14" style="fill:none"/><rect x="923.8" y="427.65" width="8.17" height="17.6" style="fill:none"/><rect x="939.64" y="427.65" width="6.23" height="17.6" style="fill:none"/><rect x="907.95" y="427.65" width="8.17" height="17.6" style="fill:none"/><rect x="891.17" y="427.65" width="9.11" height="17.6" style="fill:none"/><path d="M812.53,505.85h-5.32L806,507.69S810.27,507.86,812.53,505.85Z" transform="translate(0)" style="fill:none"/><path d="M771.21,504c-1.93-2.31-3.33-6-4.31-9.61h-4c0,2.34.7,7.34,6,12.36,6.17,5.79,11,5.88,12.41,5.77.35-1.38.65-2.81.89-4.25C779.43,508.34,774.38,507.83,771.21,504Z" transform="translate(0)" style="fill:none"/><path d="M355.64,468.5a53.17,53.17,0,0,1-6.71,6.86c4.17-1.08,11.86-3.58,14.71-7.86a20.68,20.68,0,0,0,2.88-7h-7.85A16.9,16.9,0,0,1,355.64,468.5Z" transform="translate(0)" style="fill:none"/><path d="M747.84,528.08c.88-1.26,2.41-1.5,3.23-2.32a1.8,1.8,0,0,0,.3-1.83h-4.84A20.9,20.9,0,0,0,747.84,528.08Z" transform="translate(0)" style="fill:none"/><path d="M745.4,527.58c-.47-1.58-.75-2.79-.93-3.65H742A7.64,7.64,0,0,0,745.4,527.58Z" transform="translate(0)" style="fill:none"/><path d="M816.74,485.26c2.64.4,4.06-.65,4.79-1.61h-4.48Z" transform="translate(0)" style="fill:none"/><path d="M733,534.91h-6.65a13.8,13.8,0,0,0,2.3,4.09,6.71,6.71,0,0,1,2.56-2.48A6.1,6.1,0,0,0,733,534.91Z" transform="translate(0)" style="fill:none"/><rect x="979.82" y="362.01" width="8.17" height="23.14" style="fill:none"/><path d="M754.74,494.41a4.36,4.36,0,0,0,2,3.21,14.71,14.71,0,0,0,4.81,1.76,35.21,35.21,0,0,1-1-5Z" transform="translate(0)" style="fill:none"/><path d="M275.14,382.86a31.92,31.92,0,0,0,10.5-3.86,9.51,9.51,0,0,0,4.49-7H277.42A77.33,77.33,0,0,1,275.14,382.86Z" transform="translate(0)" style="fill:none"/><path d="M259.14,399c11.67-10.94,13.23-21.88,13.22-27h-8.81c-2.13,7.76-5.19,15.94-9.41,21-6.93,8.32-17.95,9.43-24.06,9.33.53,3.14,1.18,6.26,1.95,9.28C235.08,411.85,245.69,411.61,259.14,399Z" transform="translate(0)" style="fill:none"/><path d="M341.64,464a14.91,14.91,0,0,1,5.6,5.43,30.86,30.86,0,0,0,5-8.93H337.73A12.94,12.94,0,0,0,341.64,464Z" transform="translate(0)" style="fill:none"/><path d="M163.84,397c4.94,4.39,14.3,4,14.3,4l-2.67-4Z" transform="translate(0)" style="fill:none"/><path d="M144.18,348.47c1.59,2.1,4.69,4.4,10.46,3.53l-.67-3.53Z" transform="translate(0)" style="fill:none"/><path d="M759,541.24c-5.49-1.52-10.58-4.68-12.49-10.22a9.39,9.39,0,0,1-3.81-2.3c.94,2,2.61,3.71.83,6.19h-7.66a4.68,4.68,0,0,1-2.18,2.29c-1.53.62-2.45,2.67-2.88,4,4.58,3.55,20.49,6.43,28.85,6.35A23.09,23.09,0,0,1,759,541.24Z" transform="translate(0)" style="fill:none"/><path d="M724.76,538.58a7.72,7.72,0,0,1-1.39-3.67h-3.59a9.55,9.55,0,0,0,1.32,3.21c1.31,2,4.83,3.1,6.73,3.59A24.54,24.54,0,0,1,724.76,538.58Z" transform="translate(0)" style="fill:none"/><path d="M173,348.47h-12.5V351S168.38,353.83,173,348.47Z" transform="translate(0)" style="fill:none"/><path d="M814.07,484.8v-1.15h-5.7C810.48,486.08,814.07,484.8,814.07,484.8Z" transform="translate(0)" style="fill:none"/><path d="M292.14,592.92V579c-9,5.56-16,10.21-20.48,13.27,3.51,2.37,7,4.65,10.31,6.82C284.52,597.48,287.94,595.39,292.14,592.92Z" transform="translate(0)" style="fill:none"/><rect x="126.64" y="502.33" width="67.33" height="7.67" style="fill:none"/><path d="M297.14,575.94V590c8.48-4.85,19.32-10.74,32-16.95V557.92C317,564.27,306.23,570.45,297.14,575.94Z" transform="translate(0)" style="fill:none"/><rect x="199.97" y="502.33" width="8.33" height="7.67" style="fill:none"/><path d="M200,547.33c2.69,1.17,5.47,2.52,8.34,4V517.67H200Z" transform="translate(0)" style="fill:none"/><path d="M376.14,611.39V576.47l-1.75.71v34.41Z" transform="translate(0)" style="fill:none"/><path d="M478.14,509.1a307,307,0,0,0-48.5,8.8V536a344.38,344.38,0,0,1,48.5-8.25Z" transform="translate(0)" style="fill:none"/><path d="M334.14,570.66c11.58-5.54,24.53-11.25,38.5-16.66V537.42c-13.75,5.75-26.69,11.87-38.5,17.92Z" transform="translate(0)" style="fill:none"/><path d="M424.64,519.25a431.73,431.73,0,0,0-47,16.11V552.1a455,455,0,0,1,47-14.86Z" transform="translate(0)" style="fill:none"/><path d="M451.64,618.59V555.2l-2.25.37v62.85Z" transform="translate(0)" style="fill:none"/><path d="M636.64,577.78v39.05c21.46.66,51.51-1.44,65-5.16,1-.27,2.19-.63,3.59-1.07A465.26,465.26,0,0,0,636.64,577.78Z" transform="translate(0)" style="fill:none"/><path d="M533.89,552.65A322.62,322.62,0,0,0,501.64,551a304.77,304.77,0,0,0-45,3.41v64.48c17.25.89,35.56.3,48.93-2.56a226.67,226.67,0,0,1,28.32-3.58Z" transform="translate(0)" style="fill:none"/><path d="M613.39,569.6a403.81,403.81,0,0,0-56.25-13.81v55.75c23.49-.72,46.72,0,56.25,2.17Z" transform="translate(0)" style="fill:none"/><path d="M434.89,558.4a372.29,372.29,0,0,0-53.75,16.13v36.31c13.07-1.34,24.35-1.74,30.5.83,5,2.08,13.32,3.91,23.25,5.25Z" transform="translate(0)" style="fill:none"/><path d="M120.64,517.67h-8.33V550c2.71-1,5.49-1.84,8.33-2.65Z" transform="translate(0)" style="fill:none"/><rect x="112.31" y="502.33" width="8.33" height="7.67" style="fill:none"/><path d="M194,517.67H126.64v28.08c20.55-5,43-6.28,60.33-2.75a54.17,54.17,0,0,1,7,2Z" transform="translate(0)" style="fill:none"/><path d="M359.89,583.34a408.89,408.89,0,0,0-54.11,29.26c4.79,2.13,9,3.47,12.53,3.73,11.11.84,26.38-1,41.58-2.93Z" transform="translate(0)" style="fill:none"/><rect x="859.54" y="427.65" width="8.17" height="17.6" style="fill:none"/><path d="M688.64,556.29v19.34c14.41,6.82,26.66,13.22,36,18.33V575.72C714.49,569.75,702.36,563.07,688.64,556.29Z" transform="translate(0)" style="fill:none"/><path d="M729.64,578.69v18c2.24,1.26,4.25,2.4,6,3.42,5.48-2,11.38-4.09,17.57-6.35C748.31,590.42,740.26,585.08,729.64,578.69Z" transform="translate(0)" style="fill:none"/><rect x="968.12" y="362.01" width="4.02" height="23.14" style="fill:none"/><path d="M648.64,558.29c12.54,4.94,24.3,10.05,35,15V553.86c-1.26-.61-2.53-1.22-3.82-1.82-9.38-4.43-19.84-9-31.18-13.52Z" transform="translate(0)" style="fill:none"/><rect x="923.8" y="362.01" width="8.17" height="23.14" style="fill:none"/><rect x="891.17" y="362.01" width="9.11" height="23.14" style="fill:none"/><path d="M631.64,575.9c-1.24-.46-2.49-.91-3.75-1.36v41.82c1.2.1,2.45.18,3.75.26Z" transform="translate(0)" style="fill:none"/><rect x="939.64" y="362.01" width="6.23" height="23.14" style="fill:none"/><rect x="907.95" y="362.01" width="8.17" height="23.14" style="fill:none"/><path d="M597.14,521.37a400.85,400.85,0,0,0-50-10.23v18.73a403.65,403.65,0,0,1,50,10.93Z" transform="translate(0)" style="fill:none"/><path d="M552.14,611.71V555l-3.75-.56v57.45Z" transform="translate(0)" style="fill:none"/><path d="M483.14,527.32c7-.53,14-.82,21-.82a286.59,286.59,0,0,1,38,2.66V510.49A326,326,0,0,0,497.7,508q-7.27.11-14.56.67Z" transform="translate(0)" style="fill:none"/><path d="M643.64,536.58c-12.87-4.94-26.79-9.67-41.5-13.83v19.49c14.42,4.24,28.35,9.06,41.5,14.11Z" transform="translate(0)" style="fill:none"/><path d="M1086.15,553.39V528.93h-18.06V445.25h-8.62v-17.6h15.09l-.12-.11c8.7-3.8,3.28-14.29,3.28-14.29-1.73,7.34-9.6,6.79-11.81,6.49l-31.08-28.41c6.18-3.75.39-12.78.39-12.78,2.61,7.23-4.13,7.12-6.94,6.78l-.2-.18h-.73V362h2.7l-.07-.09c1.37-.5,6.8-3,2.42-10.53,0,0-1.16,5.16-5.73,5.69l-21.08-30.79c8.76-7.28-2.94-16.15-2.94-16.15,5.41,8.05-2.45,9.37-2.45,9.37H910.41s-7.86-1.32-2.46-9.37c0,0-12.08,9.15-2.49,16.51l-21.14,30.47c-4.89-.28-6.11-5.73-6.11-5.73-5,8.55,2.71,10.62,2.71,10.62h2.58v23.14s-11.38,2.45-8.11-6.6c0,0-6.12,9.54.93,13.08l-31,28h0s-10.38,2.16-12.39-6.39c0,0-5.54,10.69,3.52,14.4h15.46v17.6h-15.4v83.68H819.31V569l-4.79,1.84a18.5,18.5,0,0,1-1.38-2.86c-1.5-4-2.5-1-6.5-1.5s-2-4-7-3-3.5,8-6,6.5-1.5,7-3.5,7c-1,0-1.13,1.78-1,3.47l-5.38,2c.57-3.89,1-12-3.88-18.52-6.63-8.92-17.7-16.73-12.35-26.54,5.49-10.07,15.1-5.72,18.3-18.08.2-.77.38-1.52.52-2.25,1.44,0,3.91-.11,7.72-.49a14.6,14.6,0,0,0,10.3-6.18s3-.91,7.55-1.83c2.71-.54,3.81-1.8,4.26-2.75h4.43s.92-2.51-2.06-3.2-1.22-5.49-4.5-5.26-6-2.08-7.85,0-2.06.92-4.35,2.53-3.79,3.66-3,5.94h5.92a5.41,5.41,0,0,1-1,1.84,20.43,20.43,0,0,1-7.55,4.34,47.27,47.27,0,0,1-9.19.89c.71-8.12-1.47-12.57,2.48-15.53,4.88-3.66,11.52-4.12,16.78-4.58a14.3,14.3,0,0,0,9.61-4.8c1-1.25,6.43-.25,7.91-4.36h9.71c2.06-2.76.45-3.19-1.75-9.32s-6.72-.51-10.93-2.8-8.37,1.38-12.49.92-2.29,6.18-6.18,5.49-3.46,5.71-3.46,5.71h6.51c.34,1.65,1.56,4,5.64,4.81,0,0-7.39,3.89-14.79,3.21s-12.43.46-13.12,11c0,.58-.09,1.16-.14,1.75a11.46,11.46,0,0,1-9.47-3.81,23.39,23.39,0,0,1-3.83-6.18h6.12c2.06-2.51,1.14-5.26-3-5.38-2.46-.07-3.44-1-4.9-1.84l0-.33h18.24c.69-2.51-1.83-4.8-5-5.26s-5-1.14-6.86-5.49-8.7-1.83-13.07-3.89-9.36,4.12-13.71,3-5.49,7.78-9.38,7.1-5.26,4.57-5.26,4.57h17.07c-.52,1.77-.62,3.65-2.43,3.89a3.1,3.1,0,0,0-2.87,3.66h8.17a15.39,15.39,0,0,0,3.63,5.72,9.66,9.66,0,0,0,6.86,3.25,37.94,37.94,0,0,0,2.06,4.31c3.6,6.39,11.2,7.9,15.21,8.48-1.89,5.39-4.71,9.52-8.34,10.13a15.72,15.72,0,0,0-12.22,10.79c-2.33-.28-6.88-1.28-9.52-4.92-.32-.44-.6-.88-.87-1.31a4.14,4.14,0,0,1,2.24-3.5,4.1,4.1,0,0,0,2.24-3.43h9.43s-2.51-5.13-4.23-3.48-1-6.36-4-5.67-8.5-5.72-10.65-3.43-7.19-1.83-9.94,1.37c-1.61,1.88-4.65,3.85-5.3,6.08-2.32.29-4.89,1.82-9.11,1.65-6.87-.28-4.58,5.08-9.16,4.6s-1.6,4.14-4.8,4.6-2.06,5.26-2.06,5.26h13a17.94,17.94,0,0,0,4.13,5.72c3,2.85,8.36,3.89,10.61,4.22a37.25,37.25,0,0,0,9.07,5.17c4.57,1.58,15.62,2.35,20.5,2.62,2.92,7.73,6.07,10.27,8.75,13.81-1.49,1.71-5.16,5.4-10,6.45-3.82.81-5.92-.64-7-1.95h8.83c1.83-2-2.52-6.75-5-8.81s-5,.69-8.92,1.15-2.75,3-5.26,2.66-3.66,5-3.66,5h11a10.78,10.78,0,0,0,5.65,4.69c5,1.83,13.86,0,16.88-5a27.41,27.41,0,0,1,1.43,3.9,34.36,34.36,0,0,1,1.15,11.22c-4.32,1.61-8.58,3.19-12.75,4.72-6.08-4.37-35.85-25.2-79-45.56-44.58-21-113-45.87-185.83-44.88-60.41.87-121.46,25.25-162,45.54a587.35,587.35,0,0,0-71,41.9c-6.16-4.21-12.45-8.56-18.73-12.82A76.61,76.61,0,0,1,248.14,547a58.07,58.07,0,0,1,3.11-8.51c6.6,11,25.89,15,36.89,11a23.47,23.47,0,0,0,12.35-10.26h24.15s-2.5-11.62-8-10.93-3-4.81-11.5-5.81-14-7-19.5-2.5-15,15-11,19.24H294c-2.37,2.87-7,6-15.31,4.26C268,541.22,260,533.15,256.72,529.41c5.84-7.74,12.74-13.29,19.13-30.17,10.65-.6,34.8-2.28,44.79-5.74,6.21-2.15,13.45-6.59,19.81-11.29,4.94-.72,16.61-3,23.19-9.21a39.69,39.69,0,0,0,9-12.5h28.47s2.5-10.5-4.5-11.5-.5-11.11-10.5-10.06-5-10.66-20-10.05c-9.23.37-14.86-3-19.92-3.62-1.42-4.87-8.05-9.15-11.58-13.27-6-7-17,2-21.71-3s-16.79,9-23.29,7.5-5,16-8.75,12.39-9.25,7.61-9.25,7.61h20.62c.38,2.74,1.56,6.12,4.88,7.5s4.54,4.89,4.91,7.66c-.59.94-1.22,1.89-1.91,2.84-5.77,7.94-15.71,10.15-20.8,10.76-4.39-14.69-17.33-22-26.7-23.59-7.94-1.33-14.1-10.36-18.23-22.13,8.75-1.27,25.37-4.57,33.23-18.54a80.57,80.57,0,0,0,4.51-9.4,21.18,21.18,0,0,0,15-7.1c5-5.32,7.07-9.85,7.92-12.5h17.87s1.21-7-6.29-8c-3.94-.53-4.16-4.64-5.29-8.5h37.29s-3-11.5-11.5-10-11-18-20.5-15.5-20.4-11-29.95-6.5-24.55-1-28.55,8.5-8,11-15,12-12.5,6-11,11.5H262c0,.23,0,.47-.06.71-3.2,1.73-5.33,3.87-10.7,4-9.1.26-11.1,6.26-6.6,11.76H258a50.45,50.45,0,0,1-8.36,13.5c-6.88,8-16.11,8.59-20.69,8.33-.12-1.28-.23-2.56-.31-3.83-1.5-23-12.5-25.5-28.67-24s-32.33-7-32.33-7c8.92-1.85,11.59-6.91,12.33-10.53h14.24s.93-14-7.57-12.47-4.5-13-13.5-12-18.08-7-27.29-2-19.06-7.27-23.89,6.11-8.32,14.33-3.82,20.36h21.18c3.22,9,15,6.8,17.32,9.53a31.16,31.16,0,0,0,21,10.5c11.5,1,26,2,36.67,10,8.62,6.46,3.85,16.2,5.4,33.94-5.45-.12-15.19-.55-20.07-1.94a44.7,44.7,0,0,1-16.5-9.5,11.39,11.39,0,0,1-2.28-4h12.92c1.64-5-1.64-9.5-6.64-13s-5.5-1-9.5-5.52-10,.52-17.17,0-3.33,10-9.83,11.5-4.5,7-4.5,7h9.68c1,2.06,3.4,4.82,9.32,6,10,2,16.5,4,16.5,4s7.5,12,22.5,13.5c8.32.83,13.71,1.05,16.87,1.08.32,1.58.69,3.22,1.13,4.92,7,27,28,17.5,40,39.5,11.69,21.44-12.5,38.5-27,58-9.59,12.89-9.77,28.62-8.8,37.8-4.1-2.57-8.12-5-12-7.21V502.33H239l-.12-.15c10.05-1.05,8.2-14.42,1-20.18,0,0,5.8,12.9-6.26,13.62l-38.94-48.54c2.79-2.27,4.37-6.39,3.29-11.58-1.66-8-8.66-6.5-8.66-6.5,8.66,6.5,0,12.67,0,12.67H131s-8.66-6.17,0-12.67c0,0-7-1.5-8.66,6.5-1.14,5.48.68,9.78,3.77,11.95l-40.79,48.2C72,495.55,78.09,482,78.09,482c-7.36,5.88-9.12,19.68,1.64,20.22l-.09.11h26.67v49.92a91.68,91.68,0,0,0-20.56,11.29c-2.11-2.25-5.22-4.63-7.61-2.54-4,3.5-4.5,1-10,2.5s-5.5,3.5-4.5,9-6.5,3-8,7.5-9,8-7.5,10.5-3.5,2-4.5,6a5.33,5.33,0,0,0-.11,2A297.5,297.5,0,0,1,0,617V780H1096V559.67A111,111,0,0,0,1086.15,553.39ZM812.53,505.85c-2.26,2-6.54,1.84-6.54,1.84l1.22-1.84Zm9-22.2c-.73,1-2.15,2-4.79,1.61l.31-1.61Zm-13.16,0h5.7v1.15S810.48,486.08,808.37,483.65Zm-51.58,14a4.36,4.36,0,0,1-2-3.21h5.82a35.21,35.21,0,0,0,1,5A14.71,14.71,0,0,1,756.79,497.62Zm12.13,9.15c-5.35-5-6-10-6-12.36h4c1,3.56,2.38,7.3,4.31,9.61,3.17,3.81,8.22,4.32,11,4.27-.24,1.44-.54,2.87-.89,4.25C780,512.65,775.09,512.56,768.92,506.77Zm-17.85,19c-.82.82-2.35,1.06-3.23,2.32a20.9,20.9,0,0,1-1.31-4.15h4.84A1.8,1.8,0,0,1,751.07,525.76Zm-6.6-1.83c.18.86.46,2.07.93,3.65a7.64,7.64,0,0,1-3.43-3.65ZM728.61,539a13.8,13.8,0,0,1-2.3-4.09H733a6.1,6.1,0,0,1-1.79,1.61A6.71,6.71,0,0,0,728.61,539Zm-7.51-.88a9.55,9.55,0,0,1-1.32-3.21h3.59a7.72,7.72,0,0,0,1.39,3.67,24.54,24.54,0,0,0,3.07,3.13C725.93,541.22,722.41,540.08,721.1,538.12Zm9.7,3c.43-1.29,1.35-3.34,2.88-4a4.68,4.68,0,0,0,2.18-2.29h7.66c1.78-2.48.11-4.14-.83-6.19a9.39,9.39,0,0,0,3.81,2.3c1.91,5.54,7,8.7,12.49,10.22a23.09,23.09,0,0,0,.66,6.27C751.29,547.59,735.38,544.71,730.8,541.16ZM144.18,348.47H154l.67,3.53C148.87,352.87,145.77,350.57,144.18,348.47ZM160.47,351v-2.53H173C168.38,353.83,160.47,351,160.47,351Zm3.37,46h11.63l2.67,4S168.78,401.39,163.84,397Zm121.8-18a31.92,31.92,0,0,1-10.5,3.86A77.33,77.33,0,0,0,277.42,372h12.71A9.51,9.51,0,0,1,285.64,379Zm-31.5,14c4.22-5.06,7.28-13.24,9.41-21h8.81c0,5.12-1.55,16.06-13.22,27-13.45,12.61-24.06,12.85-27.11,12.61-.77-3-1.42-6.14-1.95-9.28C236.19,402.43,247.21,401.32,254.14,393Zm98.13,67.5a30.86,30.86,0,0,1-5,8.93,14.91,14.91,0,0,0-5.6-5.43,12.94,12.94,0,0,1-3.91-3.5Zm14.25,0a20.68,20.68,0,0,1-2.88,7c-2.85,4.28-10.54,6.78-14.71,7.86a53.17,53.17,0,0,0,6.71-6.86,16.9,16.9,0,0,0,3-8ZM318,436.5a16.86,16.86,0,0,1-7.48,8c1-3.45,1.63-6.11,2-8Zm-19.89,4a3.94,3.94,0,0,1-.65-4h10.58a46.43,46.43,0,0,1-2.85,9.08C303.29,442.82,299.94,442.3,298.14,440.5Zm10,11.5a20.9,20.9,0,0,0,8.33-5c-2.06,4.46-5.71,8.09-1.83,13.52h16.74c1.12,2.11,2.67,4.17,4.76,5,3.35,1.34,5.35,5.83,6.31,8.64-10,7.76-44.78,14.06-63.06,13.88a49.9,49.9,0,0,0,1.44-13.71C292.83,471,304,464.1,308.14,452Zm616.1,81.83a28.3,28.3,0,0,1-.25-3.71V500a28.29,28.29,0,1,1,56.58,0v28.43A374.45,374.45,0,0,0,924.24,533.83Zm-46-55.77a18.71,18.71,0,0,1,17,17h-17Zm17,20.31a18.72,18.72,0,0,1-17,17v-17Zm130.26-20.31v17h-17A18.71,18.71,0,0,1,1025.43,478.06Zm3.35,20.31h17a18.72,18.72,0,0,1-17,17Zm-3.35,17a18.72,18.72,0,0,1-17-17h17Zm3.35-20.32v-17a18.71,18.71,0,0,1,17,17Zm-1.43-49.77v-17.6H1036v17.6Zm-7.67,0h-8.18v-17.6h8.18Zm-15.85,0h-8.17v-17.6h8.17Zm-15.84,0h-8.17v-17.6H988Zm-15.84,0h-4v-17.6h4Zm-26.28,0h-6.23v-17.6h6.23Zm-13.9,0H923.8v-17.6H932Zm-15.84,0H908v-17.6h8.18Zm-15.85,0h-9.11v-17.6h9.11Zm-16.78,0h-8.11v-17.6h8.11Zm-8.65,32.81v17h-17A18.71,18.71,0,0,1,874.85,478.06Zm0,20.31v17a18.72,18.72,0,0,1-17-17Zm176.95-53.12h-8.17v-17.6h8.17ZM1019.68,362v23.14h-8.18V362Zm-15.85,0v23.14h-8.17V362ZM988,362v23.14h-8.17V362Zm-15.84,23.14h-4V362h4ZM945.87,362v23.14h-6.23V362ZM932,362v23.14H923.8V362Zm-15.84,0v23.14H908V362Zm-25,0h9.11v23.14h-9.11Zm-31.63,65.64h8.18v17.6h-8.18Zm-170.9,148V556.29c13.72,6.78,25.85,13.46,36,19.43V594C715.3,588.85,703.05,582.45,688.64,575.63Zm41,21.1v-18c10.62,6.39,18.67,11.73,23.58,15.11-6.19,2.26-12.09,4.39-17.57,6.35C733.89,599.13,731.88,598,729.64,596.73Zm-46-42.87v19.43c-10.7-4.95-22.46-10.06-35-15V538.52C660,543,670.44,547.61,679.82,552,681.11,552.64,682.38,553.25,683.64,553.86Zm-55.75,20.68c1.26.45,2.51.9,3.75,1.36v40.72c-1.3-.08-2.55-.16-3.75-.26Zm-25.75-32.3V522.75c14.71,4.16,28.63,8.89,41.5,13.83v19.77C630.49,551.3,616.56,546.48,602.14,542.24Zm-50,12.74v56.73l-3.75.16V554.42Zm-5-25.11V511.14a400.85,400.85,0,0,1,50,10.23V540.8A403.65,403.65,0,0,0,547.14,529.87ZM497.7,508a326,326,0,0,1,44.44,2.49v18.67a286.59,286.59,0,0,0-38-2.66c-7,0-14,.29-21,.82V508.67Q490.42,508.12,497.7,508Zm-46.06,47.2v63.39l-2.25-.17V555.57Zm-22-19.2V517.9a307,307,0,0,1,48.5-8.8v18.65A344.38,344.38,0,0,0,429.64,536Zm-53.5,40.47v34.92l-1.75.2V577.18Zm1.5-24.37V535.36a431.73,431.73,0,0,1,47-16.11v18A455,455,0,0,0,377.64,552.1Zm-5-14.68V554c-14,5.41-26.92,11.12-38.5,16.66V555.34C346,549.29,358.89,543.17,372.64,537.42ZM297.14,590V575.94c9.09-5.49,19.88-11.67,32-18v15.15C316.46,579.28,305.62,585.17,297.14,590Zm-5-11v13.93c-4.2,2.47-7.62,4.56-10.17,6.16-3.35-2.17-6.8-4.45-10.31-6.82C276.12,589.2,283.11,584.55,292.14,579Zm-83.83-27.66c-2.87-1.48-5.65-2.83-8.34-4V517.67h8.34Zm0-41.33H200v-7.67h8.34Zm-48.67-40.5a12,12,0,1,1-12,12A12,12,0,0,1,159.64,469.5ZM194,502.33V510H126.64v-7.67Zm-73.33,0V510h-8.33v-7.67Zm-8.33,15.34h8.33v29.66c-2.84.81-5.62,1.7-8.33,2.65Zm14.33,28.08V517.67H194V545a54.17,54.17,0,0,0-7-2C169.63,539.47,147.19,540.73,126.64,545.75Zm191.67,70.58c-3.51-.26-7.74-1.6-12.53-3.73a408.89,408.89,0,0,1,54.11-29.26V613.4C344.69,615.34,329.42,617.17,318.31,616.33Zm62.83-5.49V574.53a372.29,372.29,0,0,1,53.75-16.13v58.52c-9.93-1.34-18.25-3.17-23.25-5.25C405.49,609.1,394.21,609.5,381.14,610.84Zm75.5,8V554.41a304.77,304.77,0,0,1,45-3.41,322.62,322.62,0,0,1,32.25,1.65v60.1a226.67,226.67,0,0,0-28.32,3.58C492.2,619.19,473.89,619.78,456.64,618.89Zm100.5-7.35V555.79a403.81,403.81,0,0,1,56.25,13.81v44.11C603.86,611.55,580.63,610.82,557.14,611.54Zm79.5,5.29V577.78a465.26,465.26,0,0,1,68.59,32.82c-1.4.44-2.61.8-3.59,1.07C688.15,615.39,658.1,617.49,636.64,616.83Z" transform="translate(0)" style="fill:#670000"/><circle cx="956.75" cy="136.6" r="60" style="fill:#670000"/><path d="M397.12,115.72s-23-23-38.5-15-25.5,2.62-51.5-1.69-39-36.31-68-28.31-34,21.72-55,21.86-56.34-6.14-70.67,0-35.33,11.14-32.33,23.14Z" transform="translate(0)" style="fill:#670000"/><path d="M974.32,273.15c-12,2-16.67,4.48-23.85.78s-17.83,6.95-17.83,6.95H1079c1.39-5.56-8.33-7.88-15-10.72s-23,.06-32.73,0-12-6.42-25.47-10.12S986.36,271.15,974.32,273.15Z" transform="translate(0)" style="fill:#670000"/><path d="M827.15,177c-14.5-10-30.51,7-46.75-6s-30.76-8-45.79,6-23,15-39.44,9-32.53,15-32.53,15H881.2C874.75,174,841.64,187,827.15,177Z" transform="translate(0)" style="fill:#670000"/><path d="M103.35,387.08c-7.2-5-15.15,3.48-23.22-3s-15.28-4-22.74,3S46,394.53,37.8,391.55,21.64,399,21.64,399H130.2C127,385.59,110.55,392.05,103.35,387.08Z" transform="translate(0)" style="fill:#670000"/><path d="M365.84,242c-13.7,7.71-45-2.31-51.08,18.5H521.32s-15.18-16.19-30.74-11.56S467.5,252.79,453.3,242s-27.93-14.65-43.28-4.63S379.54,234.29,365.84,242Z" transform="translate(0)" style="fill:#670000"/><path d="M700.43,411.93c-7.49,2.23-11.11,1.86-17.95-3.34s-13.45-7-20.84-2.23-14.68-1.48-21.28,2.23-21.67-1.11-24.6,8.91h99.48S707.93,409.7,700.43,411.93Z" transform="translate(0)" style="fill:#670000"/><path d="M77.64,159.33c7-11,22.5.5,22.5.5-11-20-22-7-22-7-13-10.5-21.5,3.5-21.5,3.5C71.64,148.33,77.64,159.33,77.64,159.33Z" transform="translate(0)" style="fill:#670000"/><path d="M276.9,245.34c-8.34-6.73-13.79,2.25-13.79,2.25,9.62-5.13,13.47,1.92,13.47,1.92,4.48-7,14.43.32,14.43.32C284,237,276.9,245.34,276.9,245.34Z" transform="translate(0)" style="fill:#670000"/><path d="M114.9,408.34c-8.34-6.73-13.79,2.25-13.79,2.25,9.62-5.13,13.47,1.92,13.47,1.92,4.48-7.05,14.43.32,14.43.32C122,400,114.9,408.34,114.9,408.34Z" transform="translate(0)" style="fill:#670000"/><path d="M977.36,221.35c-8.34-6.74-13.79,2.24-13.79,2.24,9.62-5.13,13.47,1.92,13.47,1.92,4.49-7,14.43.32,14.43.32C984.42,213,977.36,221.35,977.36,221.35Z" transform="translate(0)" style="fill:#670000"/><path d="M1000.81,215.81c3.52-5.53,11.33.26,11.33.26-5.54-10.07-11.08-3.53-11.08-3.53-6.54-5.28-10.82,1.76-10.82,1.76C997.79,210.28,1000.81,215.81,1000.81,215.81Z" transform="translate(0)" style="fill:#670000"/><path d="M751.39,123.27c3.52-5.54,11.32.25,11.32.25-5.53-10.06-11.07-3.52-11.07-3.52-6.55-5.29-10.82,1.76-10.82,1.76C748.37,117.73,751.39,123.27,751.39,123.27Z" transform="translate(0)" style="fill:#670000"/><path d="M719.64,395c-6.54-5.29-10.82,1.76-10.82,1.76,7.55-4,10.57,1.51,10.57,1.51,3.52-5.54,11.32.25,11.32.25C725.18,388.46,719.64,395,719.64,395Z" transform="translate(0)" style="fill:#670000"/><circle cx="159.64" cy="481.5" r="9" style="fill:#670000"/></g><g id="Designed_by_Vecteezy" data-name="Designed by Vecteezy"><g style="opacity:0.26;mix-blend-mode:multiply"><path d="M570.54,748.69a1.8,1.8,0,0,1,1,.47l-8.9,19c-1,0-3.32.14-3.89.14a1.8,1.8,0,0,1-1-.47l-3-19c1.84,0,4.15-.14,4.84-.14a1.76,1.76,0,0,1,1,.47l.93,9.3a27,27,0,0,1,.06,3.09,26.83,26.83,0,0,1,.95-3.31l3.7-9.41c1.64,0,3.68-.14,4.31-.14Z" transform="translate(0)" style="fill:#3c2415"/><path d="M579.72,758.07c0,2.07-1.15,3.44-4,4l-3,.62a2.18,2.18,0,0,0,2.41,1.94,4,4,0,0,0,2.78-1.26,1.77,1.77,0,0,1,.85,1.45c0,1.72-2.65,3.6-5.72,3.6s-5.16-2-5.16-5.31c0-3.85,2.72-9.07,7.58-9.07,2.66,0,4.32,1.57,4.32,4Zm-5.11,2a1.23,1.23,0,0,0,.84-1.34c0-.57-.19-1.43-.85-1.43-1.2,0-1.73,1.93-1.92,3.38Z" transform="translate(0)" style="fill:#3c2415"/><path d="M587.86,754.08c2.45,0,4.29,1.3,4.29,3,0,2.11-2.55,2.88-2.55,2.88s-.75-2.3-2.47-2.3c-1.16,0-1.83,1.17-1.83,3.68,0,2.31.61,3.35,2.1,3.35a3.56,3.56,0,0,0,2.48-1,1.73,1.73,0,0,1,.85,1.41c0,1.66-2.54,3.42-5.5,3.42-3.15,0-5.09-2-5.09-5.26,0-3.9,2.79-9.12,7.72-9.12Z" transform="translate(0)" style="fill:#3c2415"/><path d="M599.63,751a1.41,1.41,0,0,1,1,.46l-.46,2.9h3.07l-.69,2.21c-.23.71-.58,1.1-1.3,1.1h-1.61l-.89,5.66c-.15.91,0,1.33.68,1.34a2.51,2.51,0,0,0,1.12-.34,1.71,1.71,0,0,1,.86,1.37c0,1.38-2,2.76-4.48,2.76s-3.71-1.62-3.26-4.46l1-6.33H593l.72-2.3a1.36,1.36,0,0,1,1.28-1h.81l1-2.67a20.15,20.15,0,0,1,2.87-.69Z" transform="translate(0)" style="fill:#3c2415"/><path d="M614.55,758.07c0,2.07-1.16,3.44-4,4l-3,.62a2.18,2.18,0,0,0,2.41,1.94,4.07,4.07,0,0,0,2.78-1.26,1.77,1.77,0,0,1,.85,1.45c0,1.72-2.65,3.6-5.73,3.6s-5.16-2-5.16-5.31c0-3.85,2.73-9.07,7.59-9.07,2.65,0,4.32,1.57,4.32,4Zm-5.11,2a1.24,1.24,0,0,0,.84-1.34c0-.57-.19-1.43-.85-1.43-1.2,0-1.73,1.93-1.92,3.38Z" transform="translate(0)" style="fill:#3c2415"/><path d="M626.88,758.07c0,2.07-1.16,3.44-4,4l-3,.62a2.18,2.18,0,0,0,2.41,1.94,4,4,0,0,0,2.78-1.26,1.77,1.77,0,0,1,.85,1.45c0,1.72-2.65,3.6-5.73,3.6s-5.16-2-5.16-5.31c0-3.85,2.73-9.07,7.58-9.07,2.66,0,4.33,1.57,4.33,4Zm-5.11,2a1.24,1.24,0,0,0,.84-1.34c0-.57-.19-1.43-.85-1.43-1.2,0-1.73,1.93-1.92,3.38Z" transform="translate(0)" style="fill:#3c2415"/><path d="M637,763.24a3.68,3.68,0,0,1,1,2.54c0,2.12-1.79,2.68-3.29,2.68-2,0-3.39-.94-4.88-1.44-.41.48-.82,1-1.21,1.44,0,0-2.21-.06-2.21-1.56,0-1.84,3.06-5,6.35-8.55a7.07,7.07,0,0,0-1.07-.11,3.3,3.3,0,0,0-2.6.93,3.93,3.93,0,0,1-.88-2.54c.11-2,2-2.55,3.5-2.55a9.11,9.11,0,0,1,3.89,1.11l.93-1.11s2.22.07,2.22,1.58c0,1.77-3,4.86-6.15,8.31a7.13,7.13,0,0,0,1.93.34,3,3,0,0,0,2.43-1.07Z" transform="translate(0)" style="fill:#3c2415"/><path d="M651.3,767.24c-.8,4.84-4.11,7.3-8.32,7.3-2.68,0-4.68-1.41-4.68-3a1.89,1.89,0,0,1,.9-1.58,4.18,4.18,0,0,0,2.71.83c1.68,0,4-.72,4.37-3.26l.32-2c-1.14,1.63-2.64,3-4.53,3-2.14,0-3.09-1.75-2.52-5.29l.6-3.84c.38-2.35.48-4.26.48-4.26,1.51-.28,3.51-1,4.21-1a1.84,1.84,0,0,1,1,.45l-.76,4.8-.7,4.43c-.07.41,0,.64.38.64,1.77,0,2.76-5.07,2.76-5.07.37-2.35.48-4.26.48-4.26,1.51-.28,3.51-1,4.21-1a1.84,1.84,0,0,1,1,.45l-.76,4.8Z" transform="translate(0)" style="fill:#3c2415"/><path d="M446.55,754.86h4.76a9.49,9.49,0,0,1,2.45.24,4.31,4.31,0,0,1,1.94,1.19,5.57,5.57,0,0,1,1.23,2.09,9.49,9.49,0,0,1,.42,3,8.53,8.53,0,0,1-.39,2.74,5.63,5.63,0,0,1-1.38,2.28,4.6,4.6,0,0,1-1.83,1,7.9,7.9,0,0,1-2.3.27h-4.9Zm2.6,2.18v8.53h2a7.26,7.26,0,0,0,1.57-.12,2.5,2.5,0,0,0,1.05-.54,2.76,2.76,0,0,0,.68-1.24,8.31,8.31,0,0,0,.26-2.36,7.64,7.64,0,0,0-.26-2.3,3,3,0,0,0-.74-1.25,2.48,2.48,0,0,0-1.2-.6,12.21,12.21,0,0,0-2.14-.12Z" transform="translate(0)" style="fill:#3c2415"/><path d="M464.59,764.77l2.46.41a4.07,4.07,0,0,1-1.5,2.06A4.34,4.34,0,0,1,463,768a4.18,4.18,0,0,1-3.61-1.59,5.38,5.38,0,0,1-.92-3.22,5.2,5.2,0,0,1,1.21-3.63,4,4,0,0,1,3.07-1.31,4.13,4.13,0,0,1,3.29,1.37,6.08,6.08,0,0,1,1.15,4.22H461a2.48,2.48,0,0,0,.6,1.7,1.87,1.87,0,0,0,1.42.62,1.52,1.52,0,0,0,1-.32A2,2,0,0,0,464.59,764.77Zm.14-2.5a2.37,2.37,0,0,0-.56-1.63,1.77,1.77,0,0,0-2.61,0,2.24,2.24,0,0,0-.52,1.6Z" transform="translate(0)" style="fill:#3c2415"/><path d="M468,765.08l2.48-.38a1.84,1.84,0,0,0,.64,1.09,2.18,2.18,0,0,0,1.36.38,2.49,2.49,0,0,0,1.44-.35.81.81,0,0,0,.32-.66.68.68,0,0,0-.17-.47,1.87,1.87,0,0,0-.83-.32,13.53,13.53,0,0,1-3.79-1.21,2.38,2.38,0,0,1-1.1-2.1,2.58,2.58,0,0,1,.95-2,4.48,4.48,0,0,1,3-.82,5.15,5.15,0,0,1,2.85.62,3.18,3.18,0,0,1,1.28,1.85l-2.32.43a1.42,1.42,0,0,0-.57-.84,2.11,2.11,0,0,0-1.19-.29,2.71,2.71,0,0,0-1.4.27.58.58,0,0,0-.28.5.53.53,0,0,0,.25.45,8.89,8.89,0,0,0,2.3.7,6.78,6.78,0,0,1,2.76,1.1,2.28,2.28,0,0,1,.77,1.83,2.84,2.84,0,0,1-1.07,2.21,4.78,4.78,0,0,1-3.17.92,5.23,5.23,0,0,1-3-.77A3.61,3.61,0,0,1,468,765.08Z" transform="translate(0)" style="fill:#3c2415"/><path d="M478.48,757.14v-2.28H481v2.28Zm0,10.6v-9.33H481v9.33Z" transform="translate(0)" style="fill:#3c2415"/><path d="M482.9,768.36l2.82.34a1,1,0,0,0,.32.68,1.93,1.93,0,0,0,1.11.26,2.92,2.92,0,0,0,1.45-.29,1.18,1.18,0,0,0,.49-.63,3.53,3.53,0,0,0,.12-1.13v-1.36a3.34,3.34,0,0,1-2.8,1.51,3.44,3.44,0,0,1-3-1.59,5.44,5.44,0,0,1-.86-3.13,5.19,5.19,0,0,1,1.13-3.59,3.66,3.66,0,0,1,2.81-1.23,3.4,3.4,0,0,1,2.85,1.52v-1.31h2.32v8.37a8,8,0,0,1-.28,2.47,3.07,3.07,0,0,1-.76,1.29,3.33,3.33,0,0,1-1.32.72,6.71,6.71,0,0,1-2.07.27,5.32,5.32,0,0,1-3.37-.82,2.54,2.54,0,0,1-1-2.06C482.89,768.57,482.89,768.47,482.9,768.36Zm2.2-5.48a3.29,3.29,0,0,0,.58,2.17,1.75,1.75,0,0,0,1.42.7,2,2,0,0,0,1.53-.71,3.12,3.12,0,0,0,.62-2.1,3.25,3.25,0,0,0-.6-2.15,1.9,1.9,0,0,0-1.51-.71,1.82,1.82,0,0,0-1.46.7A3.19,3.19,0,0,0,485.1,762.88Z" transform="translate(0)" style="fill:#3c2415"/><path d="M502.25,767.74h-2.47V763a7.19,7.19,0,0,0-.16-2,1.43,1.43,0,0,0-.51-.69,1.53,1.53,0,0,0-.86-.25,1.94,1.94,0,0,0-1.15.36,1.76,1.76,0,0,0-.7.93,7.81,7.81,0,0,0-.19,2.14v4.23h-2.47v-9.33H496v1.37a3.71,3.71,0,0,1,3.07-1.58,3.65,3.65,0,0,1,1.5.29,2.56,2.56,0,0,1,1,.75,2.75,2.75,0,0,1,.48,1,7.74,7.74,0,0,1,.14,1.66Z" transform="translate(0)" style="fill:#3c2415"/><path d="M509.8,764.77l2.46.41a4.07,4.07,0,0,1-1.5,2.06,4.32,4.32,0,0,1-2.56.71,4.17,4.17,0,0,1-3.6-1.59,5.32,5.32,0,0,1-.93-3.22,5.16,5.16,0,0,1,1.22-3.63A4,4,0,0,1,508,758.2a4.13,4.13,0,0,1,3.29,1.37,6.08,6.08,0,0,1,1.15,4.22H506.2a2.48,2.48,0,0,0,.6,1.7,1.88,1.88,0,0,0,1.43.62,1.51,1.51,0,0,0,1-.32A1.94,1.94,0,0,0,509.8,764.77Zm.14-2.5a2.42,2.42,0,0,0-.55-1.63,1.73,1.73,0,0,0-1.29-.56,1.71,1.71,0,0,0-1.33.59,2.29,2.29,0,0,0-.52,1.6Z" transform="translate(0)" style="fill:#3c2415"/><path d="M522.61,767.74h-2.3v-1.37a3.71,3.71,0,0,1-1.35,1.19,3.47,3.47,0,0,1-1.57.39,3.53,3.53,0,0,1-2.75-1.3,6.31,6.31,0,0,1,0-7.22,3.63,3.63,0,0,1,2.82-1.23,3.51,3.51,0,0,1,2.71,1.3v-4.64h2.47Zm-6.6-4.87a4.18,4.18,0,0,0,.42,2.16,1.86,1.86,0,0,0,1.67,1,1.82,1.82,0,0,0,1.45-.72,3.36,3.36,0,0,0,.59-2.17,3.66,3.66,0,0,0-.58-2.32,1.83,1.83,0,0,0-1.48-.71,1.86,1.86,0,0,0-1.47.7A3.16,3.16,0,0,0,516,762.87Z" transform="translate(0)" style="fill:#3c2415"/><path d="M529.22,767.74V754.86h2.47v4.64a3.47,3.47,0,0,1,2.7-1.3,3.63,3.63,0,0,1,2.82,1.23,5.09,5.09,0,0,1,1.12,3.55,5.39,5.39,0,0,1-1.14,3.68,3.55,3.55,0,0,1-2.76,1.29,3.37,3.37,0,0,1-1.58-.4,3.66,3.66,0,0,1-1.34-1.18v1.37Zm2.45-4.87a4.05,4.05,0,0,0,.45,2.15,2,2,0,0,0,1.71,1,1.73,1.73,0,0,0,1.39-.7,3.39,3.39,0,0,0,.58-2.2,3.62,3.62,0,0,0-.58-2.31,1.91,1.91,0,0,0-3,0A3.1,3.1,0,0,0,531.67,762.87Z" transform="translate(0)" style="fill:#3c2415"/><path d="M538.79,758.41h2.63l2.23,6.62,2.18-6.62h2.56l-3.3,9L544.5,769a6.26,6.26,0,0,1-.62,1.25,2.67,2.67,0,0,1-.68.7,2.82,2.82,0,0,1-.94.42,4.84,4.84,0,0,1-1.26.15,6.59,6.59,0,0,1-1.4-.15l-.21-1.93a5.85,5.85,0,0,0,1,.11,1.55,1.55,0,0,0,1.28-.51,3.56,3.56,0,0,0,.63-1.28Z" transform="translate(0)" style="fill:#3c2415"/></g></g></g></svg>