<?xml version="1.0" encoding="utf-8"?>
<!-- Generator: Adobe Illustrator 23.0.0, SVG Export Plug-In . SVG Version: 6.00 Build 0)  -->
<svg version="1.1" xmlns="http://www.w3.org/2000/svg" xmlns:xlink="http://www.w3.org/1999/xlink" x="0px" y="0px"
	 viewBox="0 0 1096 780" style="enable-background:new 0 0 1096 780;" xml:space="preserve">
<style type="text/css">
	.st0{fill:#ED1C24;}
	.st1{fill:none;}
	.st2{fill:#670000;}
</style>
<g id="_x31_">
	<rect x="0" class="st0" width="1096" height="777.5"/>
</g>
<g id="_x32_">
	<g>
		<rect x="968.1" y="427.7" class="st1" width="4" height="17.6"/>
		<rect x="995.7" y="427.7" class="st1" width="8.2" height="17.6"/>
		<rect x="1027.3" y="427.7" class="st1" width="8.6" height="17.6"/>
		<rect x="979.8" y="427.7" class="st1" width="8.2" height="17.6"/>
		<rect x="1011.5" y="427.7" class="st1" width="8.2" height="17.6"/>
		<path class="st1" d="M297.5,436.5c-0.4,1.4-0.4,2.9,0.7,4c1.8,1.8,5.2,2.3,7.1,5.1c1.5-3.6,2.4-6.7,2.9-9.1H297.5z"/>
		<path class="st1" d="M310.5,444.5c2.2-1.2,5.5-3.6,7.5-8h-5.5C312.2,438.4,311.6,441,310.5,444.5z"/>
		<path class="st1" d="M279.4,488c18.3,0.2,53-6.1,63.1-13.9c-1-2.8-3-7.3-6.3-8.6c-2.1-0.8-3.6-2.9-4.8-5h-16.7
			c-3.9-5.4-0.2-9.1,1.8-13.5c-2.4,2.2-5.2,4.1-8.3,5c-4.2,12.1-15.3,19-27.3,22.3C281,478.4,280.6,483,279.4,488z"/>
		<path class="st1" d="M952.3,471.7c-15.6,0-28.3,12.7-28.3,28.3v30.2c0,1.3,0.1,2.5,0.3,3.7c18.7-3.3,38.2-5.1,56.3-5.5v-28.4
			C980.6,484.4,967.8,471.7,952.3,471.7z"/>
		<rect x="875.4" y="427.7" class="st1" width="8.1" height="17.6"/>
		<rect x="1043.6" y="427.7" class="st1" width="8.2" height="17.6"/>
		<rect x="1011.5" y="362" class="st1" width="8.2" height="23.1"/>
		<rect x="995.7" y="362" class="st1" width="8.2" height="23.1"/>
		<rect x="923.8" y="427.7" class="st1" width="8.2" height="17.6"/>
		<rect x="939.6" y="427.7" class="st1" width="6.2" height="17.6"/>
		<rect x="908" y="427.7" class="st1" width="8.2" height="17.6"/>
		<rect x="891.2" y="427.7" class="st1" width="9.1" height="17.6"/>
		<path class="st1" d="M812.5,505.9h-5.3l-1.2,1.8C806,507.7,810.3,507.9,812.5,505.9z"/>
		<path class="st1" d="M771.2,504c-1.9-2.3-3.3-6.1-4.3-9.6h-4c0,2.3,0.7,7.3,6,12.4c6.2,5.8,11,5.9,12.4,5.8
			c0.4-1.4,0.6-2.8,0.9-4.2C779.4,508.3,774.4,507.8,771.2,504z"/>
		<path class="st1" d="M355.6,468.5c-1.3,1.7-3.7,4.2-6.7,6.9c4.2-1.1,11.9-3.6,14.7-7.9c1.5-2.3,2.4-4.8,2.9-7h-7.8
			C358.3,463.1,357.5,466,355.6,468.5z"/>
		<path class="st1" d="M747.8,528.1c0.9-1.3,2.4-1.5,3.2-2.3c0.5-0.5,0.5-1.2,0.3-1.8h-4.8C746.7,525,747.1,526.5,747.8,528.1z"/>
		<path class="st1" d="M745.4,527.6c-0.5-1.6-0.8-2.8-0.9-3.7H742C742.9,526,744.4,527,745.4,527.6z"/>
		<path class="st1" d="M816.7,485.3c2.6,0.4,4.1-0.7,4.8-1.6h-4.5L816.7,485.3z"/>
		<path class="st1" d="M733,534.9h-6.7c0.4,1.2,1.1,2.6,2.3,4.1c0.5-0.8,1.3-1.8,2.6-2.5C731.9,536.1,732.5,535.6,733,534.9z"/>
		<rect x="979.8" y="362" class="st1" width="8.2" height="23.1"/>
		<path class="st1" d="M754.7,494.4c0.2,1.1,0.7,2.4,2.1,3.2c2,1.2,4,1.6,4.8,1.8c-0.6-2.2-0.9-4-1-5H754.7z"/>
		<path class="st1" d="M275.1,382.9c1.8-0.3,6-1.3,10.5-3.9c3-1.7,4.1-4.6,4.5-7h-12.7C277.1,374.2,276.5,378.1,275.1,382.9z"/>
		<path class="st1" d="M259.1,399c11.7-10.9,13.2-21.9,13.2-27h-8.8c-2.1,7.8-5.2,15.9-9.4,21c-6.9,8.3-18,9.4-24.1,9.3
			c0.5,3.1,1.2,6.3,1.9,9.3C235.1,411.9,245.7,411.6,259.1,399z"/>
		<path class="st1" d="M341.6,464c2.8,1.5,4.5,3.7,5.6,5.4c2.6-3.1,4.1-6.3,5-8.9h-14.5C338.8,461.9,340.1,463.2,341.6,464z"/>
		<path class="st1" d="M163.8,397c4.9,4.4,14.3,4,14.3,4l-2.7-4H163.8z"/>
		<path class="st1" d="M144.2,348.5c1.6,2.1,4.7,4.4,10.5,3.5l-0.7-3.5H144.2z"/>
		<path class="st1" d="M759,541.2c-5.5-1.5-10.6-4.7-12.5-10.2c-1.4-0.4-2.7-1.3-3.8-2.3c0.9,2,2.6,3.7,0.8,6.2h-7.7
			c-0.5,1-1.2,1.9-2.2,2.3c-1.5,0.6-2.5,2.7-2.9,4c4.6,3.5,20.5,6.4,28.9,6.4C759.1,545.2,758.9,543.1,759,541.2z"/>
		<path class="st1" d="M724.8,538.6c-0.9-1.1-1.2-2.5-1.4-3.7h-3.6c0.2,1,0.6,2.2,1.3,3.2c1.3,2,4.8,3.1,6.7,3.6
			C726.4,540.5,725.4,539.4,724.8,538.6z"/>
		<path class="st1" d="M173,348.5h-12.5v2.5C160.5,351,168.4,353.8,173,348.5z"/>
		<path class="st1" d="M814.1,484.8v-1.2h-5.7C810.5,486.1,814.1,484.8,814.1,484.8z"/>
		<path class="st1" d="M292.1,592.9V579c-9,5.6-16,10.2-20.5,13.3c3.5,2.4,7,4.7,10.3,6.8C284.5,597.5,287.9,595.4,292.1,592.9z"/>
		<rect x="126.6" y="502.3" class="st1" width="67.3" height="7.7"/>
		<path class="st1" d="M297.1,575.9V590c8.5-4.9,19.3-10.7,32-16.9v-15.1C317,564.3,306.2,570.5,297.1,575.9z"/>
		<rect x="200" y="502.3" class="st1" width="8.3" height="7.7"/>
		<path class="st1" d="M200,547.3c2.7,1.2,5.5,2.5,8.3,4v-33.7H200V547.3z"/>
		<path class="st1" d="M376.1,611.4v-34.9c-0.6,0.2-1.2,0.5-1.8,0.7v34.4C375,611.5,375.6,611.5,376.1,611.4z"/>
		<path class="st1" d="M478.1,509.1c-16.3,1.6-32.6,4.7-48.5,8.8V536c15.7-3.8,32-6.7,48.5-8.2V509.1z"/>
		<path class="st1" d="M334.1,570.7c11.6-5.5,24.5-11.2,38.5-16.7v-16.6c-13.8,5.8-26.7,11.9-38.5,17.9V570.7z"/>
		<path class="st1" d="M424.6,519.2c-16.3,4.5-32.1,10.1-47,16.1v16.7c14.7-5.5,30.5-10.7,47-14.9V519.2z"/>
		<path class="st1" d="M451.6,618.6v-63.4c-0.8,0.1-1.5,0.2-2.3,0.4v62.9C450.1,618.5,450.9,618.5,451.6,618.6z"/>
		<path class="st1" d="M636.6,577.8v39c21.5,0.7,51.5-1.4,65-5.2c1-0.3,2.2-0.6,3.6-1.1C691.8,602.7,667.7,589.6,636.6,577.8z"/>
		<path class="st1" d="M533.9,552.6c-10.5-1.1-21.3-1.6-32.3-1.6c-15.5,0-30.5,1.3-45,3.4v64.5c17.2,0.9,35.6,0.3,48.9-2.6
			c7.3-1.6,17.3-2.7,28.3-3.6V552.6z"/>
		<path class="st1" d="M613.4,569.6c-17.4-5.6-36.3-10.5-56.3-13.8v55.8c23.5-0.7,46.7,0,56.3,2.2V569.6z"/>
		<path class="st1" d="M434.9,558.4c-19.4,4.2-37.4,9.9-53.8,16.1v36.3c13.1-1.3,24.3-1.7,30.5,0.8c5,2.1,13.3,3.9,23.3,5.2V558.4z"
			/>
		<path class="st1" d="M120.6,517.7h-8.3V550c2.7-1,5.5-1.8,8.3-2.6V517.7z"/>
		<rect x="112.3" y="502.3" class="st1" width="8.3" height="7.7"/>
		<path class="st1" d="M194,517.7h-67.3v28.1c20.5-5,43-6.3,60.3-2.7c2.2,0.5,4.6,1.1,7,2V517.7z"/>
		<path class="st1" d="M359.9,583.3c-23.8,10.7-42.4,21.7-54.1,29.3c4.8,2.1,9,3.5,12.5,3.7c11.1,0.8,26.4-1,41.6-2.9V583.3z"/>
		<rect x="859.5" y="427.7" class="st1" width="8.2" height="17.6"/>
		<path class="st1" d="M688.6,556.3v19.3c14.4,6.8,26.7,13.2,36,18.3v-18.2C714.5,569.8,702.4,563.1,688.6,556.3z"/>
		<path class="st1" d="M729.6,578.7v18c2.2,1.3,4.2,2.4,6,3.4c5.5-2,11.4-4.1,17.6-6.4C748.3,590.4,740.3,585.1,729.6,578.7z"/>
		<rect x="968.1" y="362" class="st1" width="4" height="23.1"/>
		<path class="st1" d="M648.6,558.3c12.5,4.9,24.3,10,35,15v-19.4c-1.3-0.6-2.5-1.2-3.8-1.8c-9.4-4.4-19.8-9-31.2-13.5V558.3z"/>
		<rect x="923.8" y="362" class="st1" width="8.2" height="23.1"/>
		<rect x="891.2" y="362" class="st1" width="9.1" height="23.1"/>
		<path class="st1" d="M631.6,575.9c-1.2-0.5-2.5-0.9-3.8-1.4v41.8c1.2,0.1,2.5,0.2,3.8,0.3V575.9z"/>
		<rect x="939.6" y="362" class="st1" width="6.2" height="23.1"/>
		<rect x="908" y="362" class="st1" width="8.2" height="23.1"/>
		<path class="st1" d="M597.1,521.4c-15.9-4.3-32.7-7.9-50-10.2v18.7c16.9,2.5,33.7,6.3,50,10.9V521.4z"/>
		<path class="st1" d="M552.1,611.7V555c-1.2-0.2-2.5-0.4-3.8-0.6v57.4C549.6,611.8,550.9,611.8,552.1,611.7z"/>
		<path class="st1" d="M483.1,527.3c7-0.5,14-0.8,21-0.8c12.6,0,25.3,1,38,2.7v-18.7c-14.5-1.8-29.4-2.7-44.4-2.5
			c-4.8,0.1-9.7,0.3-14.6,0.7V527.3z"/>
		<path class="st1" d="M643.6,536.6c-12.9-4.9-26.8-9.7-41.5-13.8v19.5c14.4,4.2,28.4,9.1,41.5,14.1V536.6z"/>
		<path class="st2" d="M1086.1,553.4v-24.5h-18.1v-83.7h-8.6v-17.6h15.1l-0.1-0.1c8.7-3.8,3.3-14.3,3.3-14.3
			c-1.7,7.3-9.6,6.8-11.8,6.5l-31.1-28.4c6.2-3.7,0.4-12.8,0.4-12.8c2.6,7.2-4.1,7.1-6.9,6.8l-0.2-0.2h-0.7V362h2.7l-0.1-0.1
			c1.4-0.5,6.8-3,2.4-10.5c0,0-1.2,5.2-5.7,5.7l-21.1-30.8c8.8-7.3-2.9-16.1-2.9-16.1c5.4,8-2.5,9.4-2.5,9.4h-89.8
			c0,0-7.9-1.3-2.5-9.4c0,0-12.1,9.2-2.5,16.5l-21.1,30.5c-4.9-0.3-6.1-5.7-6.1-5.7c-5,8.6,2.7,10.6,2.7,10.6h2.6v23.1
			c0,0-11.4,2.5-8.1-6.6c0,0-6.1,9.5,0.9,13.1l-31,28l0,0c0,0-10.4,2.2-12.4-6.4c0,0-5.5,10.7,3.5,14.4h15.5v17.6h-15.4v83.7h-17.2
			V569c-1.6,0.6-3.2,1.2-4.8,1.8c-0.5-0.9-1-1.8-1.4-2.9c-1.5-4-2.5-1-6.5-1.5s-2-4-7-3s-3.5,8-6,6.5s-1.5,7-3.5,7
			c-1,0-1.1,1.8-1,3.5c-1.8,0.7-3.6,1.3-5.4,2c0.6-3.9,1-12-3.9-18.5c-6.6-8.9-17.7-16.7-12.4-26.5c5.5-10.1,15.1-5.7,18.3-18.1
			c0.2-0.8,0.4-1.5,0.5-2.3c1.4,0,3.9-0.1,7.7-0.5c6.9-0.7,10.3-6.2,10.3-6.2s3-0.9,7.6-1.8c2.7-0.5,3.8-1.8,4.3-2.7h4.4
			c0,0,0.9-2.5-2.1-3.2c-3-0.7-1.2-5.5-4.5-5.3c-3.3,0.2-6-2.1-7.9,0c-1.8,2.1-2.1,0.9-4.3,2.5c-2.3,1.6-3.8,3.7-3,5.9h5.9
			c-0.3,0.7-0.6,1.4-1,1.8c-1.1,1.1-4.3,3.4-7.6,4.3c-2.2,0.6-6.7,0.8-9.2,0.9c0.7-8.1-1.5-12.6,2.5-15.5c4.9-3.7,11.5-4.1,16.8-4.6
			c5.3-0.5,8.5-3.4,9.6-4.8c1-1.2,6.4-0.2,7.9-4.4h9.7c2.1-2.8,0.5-3.2-1.8-9.3c-2.2-6.1-6.7-0.5-10.9-2.8
			c-4.2-2.3-8.4,1.4-12.5,0.9c-4.1-0.5-2.3,6.2-6.2,5.5c-3.9-0.7-3.5,5.7-3.5,5.7h6.5c0.3,1.7,1.6,4,5.6,4.8c0,0-7.4,3.9-14.8,3.2
			c-7.4-0.7-12.4,0.5-13.1,11c0,0.6-0.1,1.2-0.1,1.7c-2.1,0.1-6.3-0.2-9.5-3.8c-1.7-2-2.9-4.1-3.8-6.2h6.1c2.1-2.5,1.1-5.3-3-5.4
			c-2.5-0.1-3.4-1-4.9-1.8c0-0.1,0-0.2,0-0.3h18.2c0.7-2.5-1.8-4.8-5-5.3c-3.2-0.5-5-1.1-6.9-5.5c-1.8-4.3-8.7-1.8-13.1-3.9
			c-4.4-2.1-9.4,4.1-13.7,3c-4.3-1.1-5.5,7.8-9.4,7.1c-3.9-0.7-5.3,4.6-5.3,4.6h17.1c-0.5,1.8-0.6,3.6-2.4,3.9
			c-3.4,0.5-2.9,3.7-2.9,3.7h8.2c0.4,1.2,1.3,3.3,3.6,5.7c2.6,2.8,5.4,3.2,6.9,3.2c0.6,1.4,1.2,2.8,2.1,4.3
			c3.6,6.4,11.2,7.9,15.2,8.5c-1.9,5.4-4.7,9.5-8.3,10.1c-4.3,0.7-10.2,4.1-12.2,10.8c-2.3-0.3-6.9-1.3-9.5-4.9
			c-0.3-0.4-0.6-0.9-0.9-1.3c0.2-1.3,0.7-2.9,2.2-3.5c1.5-0.6,2.1-2.2,2.2-3.4h9.4c0,0-2.5-5.1-4.2-3.5c-1.7,1.7-1-6.4-4-5.7
			c-3,0.7-8.5-5.7-10.7-3.4c-2.2,2.3-7.2-1.8-9.9,1.4c-1.6,1.9-4.7,3.8-5.3,6.1c-2.3,0.3-4.9,1.8-9.1,1.7c-6.9-0.3-4.6,5.1-9.2,4.6
			c-4.6-0.5-1.6,4.1-4.8,4.6c-3.2,0.5-2.1,5.3-2.1,5.3h13c0.7,1.5,1.9,3.6,4.1,5.7c3,2.8,8.4,3.9,10.6,4.2c2.9,2.2,6.2,4.2,9.1,5.2
			c4.6,1.6,15.6,2.4,20.5,2.6c2.9,7.7,6.1,10.3,8.8,13.8c-1.5,1.7-5.2,5.4-10,6.4c-3.8,0.8-5.9-0.6-7-1.9h8.8c1.8-1.9-2.5-6.7-5-8.8
			c-2.5-2.1-5,0.7-8.9,1.1c-3.9,0.5-2.7,3-5.3,2.7c-2.5-0.3-3.7,5-3.7,5H750c0.9,1.5,2.6,3.6,5.7,4.7c5,1.8,13.9,0,16.9-5
			c0.5,1.1,1,2.4,1.4,3.9c1.1,3.9,1.3,7.8,1.2,11.2c-4.3,1.6-8.6,3.2-12.8,4.7c-6.1-4.4-35.9-25.2-79-45.6
			c-44.6-21.1-113-45.9-185.8-44.9c-60.4,0.9-121.5,25.2-162,45.5c-35.5,17.8-62,35.6-71,41.9c-6.2-4.2-12.4-8.6-18.7-12.8
			c-0.7-8.1-0.5-17.8,2.3-27.6c0.9-3.3,2-6.1,3.1-8.5c6.6,11,25.9,15,36.9,11c6.7-2.4,10.5-7.1,12.4-10.3h24.1c0,0-2.5-11.6-8-10.9
			s-3-4.8-11.5-5.8s-14-7-19.5-2.5s-15,15-11,19.2H294c-2.4,2.9-7,6-15.3,4.3c-10.6-2.3-18.7-10.3-21.9-14.1
			c5.8-7.7,12.7-13.3,19.1-30.2c10.7-0.6,34.8-2.3,44.8-5.7c6.2-2.2,13.5-6.6,19.8-11.3c4.9-0.7,16.6-3,23.2-9.2
			c4.8-4.6,7.6-9.3,9-12.5h28.5c0,0,2.5-10.5-4.5-11.5s-0.5-11.1-10.5-10.1c-10,1.1-5-10.7-20-10.1c-9.2,0.4-14.9-3-19.9-3.6
			c-1.4-4.9-8-9.2-11.6-13.3c-6-7-17,2-21.7-3c-4.7-5-16.8,9-23.3,7.5s-5,16-8.8,12.4c-3.8-3.6-9.2,7.6-9.2,7.6h20.6
			c0.4,2.7,1.6,6.1,4.9,7.5c3.4,1.4,4.5,4.9,4.9,7.7c-0.6,0.9-1.2,1.9-1.9,2.8c-5.8,7.9-15.7,10.1-20.8,10.8
			c-4.4-14.7-17.3-22-26.7-23.6c-7.9-1.3-14.1-10.4-18.2-22.1c8.8-1.3,25.4-4.6,33.2-18.5c1.8-3.2,3.3-6.4,4.5-9.4
			c3.1-0.1,9.3-1,15-7.1c5-5.3,7.1-9.8,7.9-12.5h17.9c0,0,1.2-7-6.3-8c-3.9-0.5-4.2-4.6-5.3-8.5h37.3c0,0-3-11.5-11.5-10
			s-11-18-20.5-15.5s-20.4-11-29.9-6.5c-9.6,4.5-24.6-1-28.6,8.5s-8,11-15,12s-12.5,6-11,11.5H262c0,0.2,0,0.5-0.1,0.7
			c-3.2,1.7-5.3,3.9-10.7,4c-9.1,0.3-11.1,6.3-6.6,11.8H258c-1.9,4.6-4.6,9.2-8.4,13.5c-6.9,8-16.1,8.6-20.7,8.3
			c-0.1-1.3-0.2-2.6-0.3-3.8c-1.5-23-12.5-25.5-28.7-24c-16.2,1.5-32.3-7-32.3-7c8.9-1.8,11.6-6.9,12.3-10.5h14.2
			c0,0,0.9-14-7.6-12.5s-4.5-13-13.5-12s-18.1-7-27.3-2s-19.1-7.3-23.9,6.1c-4.8,13.4-8.3,14.3-3.8,20.4h21.2c3.2,9,15,6.8,17.3,9.5
			c2.5,3,9.5,9.5,21,10.5s26,2,36.7,10c8.6,6.5,3.9,16.2,5.4,33.9c-5.5-0.1-15.2-0.5-20.1-1.9c-7-2-14-7-16.5-9.5
			c-1-1-1.7-2.5-2.3-4h12.9c1.6-5-1.6-9.5-6.6-13s-5.5-1-9.5-5.5s-10,0.5-17.2,0c-7.2-0.5-3.3,10-9.8,11.5s-4.5,7-4.5,7h9.7
			c1,2.1,3.4,4.8,9.3,6c10,2,16.5,4,16.5,4s7.5,12,22.5,13.5c8.3,0.8,13.7,1,16.9,1.1c0.3,1.6,0.7,3.2,1.1,4.9c7,27,28,17.5,40,39.5
			c11.7,21.4-12.5,38.5-27,58c-9.6,12.9-9.8,28.6-8.8,37.8c-4.1-2.6-8.1-5-12-7.2v-52.3H239l-0.1-0.2c10.1-1.1,8.2-14.4,1-20.2
			c0,0,5.8,12.9-6.3,13.6l-38.9-48.5c2.8-2.3,4.4-6.4,3.3-11.6c-1.7-8-8.7-6.5-8.7-6.5c8.7,6.5,0,12.7,0,12.7H131
			c0,0-8.7-6.2,0-12.7c0,0-7-1.5-8.7,6.5c-1.1,5.5,0.7,9.8,3.8,12l-40.8,48.2C72,495.6,78.1,482,78.1,482
			c-7.4,5.9-9.1,19.7,1.6,20.2l-0.1,0.1h26.7v49.9c-7.8,3.2-14.8,7-20.6,11.3c-2.1-2.3-5.2-4.6-7.6-2.5c-4,3.5-4.5,1-10,2.5
			s-5.5,3.5-4.5,9c1,5.5-6.5,3-8,7.5s-9,8-7.5,10.5s-3.5,2-4.5,6c-0.2,0.7-0.2,1.4-0.1,2C22.4,609.8,0,617,0,617v163h1096V559.7
			C1096,559.7,1092.5,557.1,1086.1,553.4z M812.5,505.9c-2.3,2-6.5,1.8-6.5,1.8l1.2-1.8H812.5z M821.5,483.6c-0.7,1-2.1,2-4.8,1.6
			l0.3-1.6H821.5z M808.4,483.6h5.7v1.2C814.1,484.8,810.5,486.1,808.4,483.6z M756.8,497.6c-1.4-0.8-1.9-2.1-2.1-3.2h5.8
			c0.1,1,0.4,2.8,1,5C760.8,499.2,758.8,498.8,756.8,497.6z M768.9,506.8c-5.3-5-6.1-10-6-12.4h4c1,3.6,2.4,7.3,4.3,9.6
			c3.2,3.8,8.2,4.3,11,4.3c-0.2,1.4-0.5,2.9-0.9,4.2C780,512.7,775.1,512.6,768.9,506.8z M751.1,525.8c-0.8,0.8-2.4,1.1-3.2,2.3
			c-0.7-1.6-1.1-3.1-1.3-4.1h4.8C751.5,524.6,751.6,525.3,751.1,525.8z M744.5,523.9c0.2,0.9,0.5,2.1,0.9,3.7
			c-1-0.5-2.5-1.6-3.4-3.7H744.5z M728.6,539c-1.2-1.4-1.9-2.9-2.3-4.1h6.7c-0.5,0.6-1.1,1.2-1.8,1.6
			C729.9,537.2,729.1,538.2,728.6,539z M721.1,538.1c-0.7-1-1.1-2.2-1.3-3.2h3.6c0.2,1.2,0.5,2.5,1.4,3.7c0.6,0.8,1.7,1.9,3.1,3.1
			C725.9,541.2,722.4,540.1,721.1,538.1z M730.8,541.2c0.4-1.3,1.4-3.3,2.9-4c1-0.4,1.7-1.3,2.2-2.3h7.7c1.8-2.5,0.1-4.1-0.8-6.2
			c1.1,1,2.4,1.9,3.8,2.3c1.9,5.5,7,8.7,12.5,10.2c-0.1,1.9,0.1,4,0.7,6.3C751.3,547.6,735.4,544.7,730.8,541.2z M144.2,348.5h9.8
			l0.7,3.5C148.9,352.9,145.8,350.6,144.2,348.5z M160.5,351v-2.5H173C168.4,353.8,160.5,351,160.5,351z M163.8,397h11.6l2.7,4
			C178.1,401,168.8,401.4,163.8,397z M285.6,379c-4.5,2.6-8.7,3.5-10.5,3.9c1.4-4.8,2-8.7,2.3-10.9h12.7
			C289.7,374.4,288.6,377.3,285.6,379z M254.1,393c4.2-5.1,7.3-13.2,9.4-21h8.8c0,5.1-1.5,16.1-13.2,27
			c-13.4,12.6-24.1,12.9-27.1,12.6c-0.8-3-1.4-6.1-1.9-9.3C236.2,402.4,247.2,401.3,254.1,393z M352.3,460.5c-0.9,2.6-2.5,5.8-5,8.9
			c-1.1-1.8-2.8-3.9-5.6-5.4c-1.5-0.8-2.8-2.1-3.9-3.5H352.3z M366.5,460.5c-0.5,2.2-1.4,4.7-2.9,7c-2.9,4.3-10.5,6.8-14.7,7.9
			c3-2.7,5.4-5.1,6.7-6.9c1.9-2.5,2.7-5.4,3-8H366.5z M318,436.5c-2,4.4-5.3,6.8-7.5,8c1-3.5,1.6-6.1,2-8H318z M298.1,440.5
			c-1.1-1.1-1-2.6-0.7-4h10.6c-0.5,2.3-1.3,5.5-2.9,9.1C303.3,442.8,299.9,442.3,298.1,440.5z M308.1,452c3.2-0.9,6-2.8,8.3-5
			c-2.1,4.5-5.7,8.1-1.8,13.5h16.7c1.1,2.1,2.7,4.2,4.8,5c3.4,1.3,5.4,5.8,6.3,8.6c-10,7.8-44.8,14.1-63.1,13.9
			c1.2-5,1.6-9.6,1.4-13.7C292.8,471,304,464.1,308.1,452z M924.2,533.8c-0.2-1.2-0.3-2.4-0.3-3.7v-30.2c0-15.6,12.7-28.3,28.3-28.3
			c15.6,0,28.3,12.7,28.3,28.3v28.4C962.5,528.7,943,530.5,924.2,533.8z M878.2,478.1c9,0.8,16.2,8,17,17h-17V478.1z M895.2,498.4
			c-0.8,9-8,16.2-17,17v-17H895.2z M1025.4,478.1v17h-17C1009.3,486,1016.4,478.9,1025.4,478.1z M1028.8,498.4h17
			c-0.8,9-8,16.2-17,17V498.4z M1025.4,515.3c-9-0.8-16.2-8-17-17h17V515.3z M1028.8,495v-17c9,0.8,16.2,8,17,17H1028.8z
			 M1027.3,445.2v-17.6h8.6v17.6H1027.3z M1019.7,445.2h-8.2v-17.6h8.2V445.2z M1003.8,445.2h-8.2v-17.6h8.2V445.2z M988,445.2h-8.2
			v-17.6h8.2V445.2z M972.1,445.2h-4v-17.6h4V445.2z M945.9,445.2h-6.2v-17.6h6.2V445.2z M932,445.2h-8.2v-17.6h8.2V445.2z
			 M916.1,445.2H908v-17.6h8.2V445.2z M900.3,445.2h-9.1v-17.6h9.1V445.2z M883.5,445.2h-8.1v-17.6h8.1V445.2z M874.9,478.1v17h-17
			C858.7,486,865.9,478.9,874.9,478.1z M874.9,498.4v17c-9-0.8-16.2-8-17-17H874.9z M1051.8,445.2h-8.2v-17.6h8.2V445.2z
			 M1019.7,362v23.1h-8.2V362H1019.7z M1003.8,362v23.1h-8.2V362H1003.8z M988,362v23.1h-8.2V362H988z M972.1,385.1h-4V362h4V385.1z
			 M945.9,362v23.1h-6.2V362H945.9z M932,362v23.1h-8.2V362H932z M916.1,362v23.1H908V362H916.1z M891.2,362h9.1v23.1h-9.1V362z
			 M859.5,427.7h8.2v17.6h-8.2V427.7z M688.6,575.6v-19.3c13.7,6.8,25.8,13.5,36,19.4V594C715.3,588.8,703,582.4,688.6,575.6z
			 M729.6,596.7v-18c10.6,6.4,18.7,11.7,23.6,15.1c-6.2,2.3-12.1,4.4-17.6,6.4C733.9,599.1,731.9,598,729.6,596.7z M683.6,553.9
			v19.4c-10.7-5-22.5-10.1-35-15v-19.8c11.3,4.5,21.8,9.1,31.2,13.5C681.1,552.6,682.4,553.3,683.6,553.9z M627.9,574.5
			c1.3,0.5,2.5,0.9,3.8,1.4v40.7c-1.3-0.1-2.5-0.2-3.8-0.3V574.5z M602.1,542.2v-19.5c14.7,4.2,28.6,8.9,41.5,13.8v19.8
			C630.5,551.3,616.6,546.5,602.1,542.2z M552.1,555v56.7c-1.3,0-2.5,0.1-3.8,0.2v-57.4C549.6,554.6,550.9,554.8,552.1,555z
			 M547.1,529.9v-18.7c17.3,2.4,34.1,5.9,50,10.2v19.4C580.9,536.2,564.1,532.4,547.1,529.9z M497.7,508c15.1-0.2,29.9,0.7,44.4,2.5
			v18.7c-12.7-1.7-25.4-2.7-38-2.7c-7,0-14,0.3-21,0.8v-18.7C488,508.3,492.9,508.1,497.7,508z M451.6,555.2v63.4
			c-0.8-0.1-1.5-0.1-2.3-0.2v-62.9C450.1,555.4,450.9,555.3,451.6,555.2z M429.6,536v-18.1c15.9-4.2,32.2-7.2,48.5-8.8v18.7
			C461.6,529.3,445.4,532.2,429.6,536z M376.1,576.5v34.9c-0.6,0.1-1.2,0.1-1.8,0.2v-34.4C375,576.9,375.6,576.7,376.1,576.5z
			 M377.6,552.1v-16.7c14.9-6,30.7-11.6,47-16.1v18C408.2,541.4,392.4,546.6,377.6,552.1z M372.6,537.4V554
			c-14,5.4-26.9,11.1-38.5,16.7v-15.3C345.9,549.3,358.9,543.2,372.6,537.4z M297.1,590v-14.1c9.1-5.5,19.9-11.7,32-18v15.1
			C316.5,579.3,305.6,585.2,297.1,590z M292.1,579v13.9c-4.2,2.5-7.6,4.6-10.2,6.2c-3.4-2.2-6.8-4.4-10.3-6.8
			C276.1,589.2,283.1,584.6,292.1,579z M208.3,551.3c-2.9-1.5-5.6-2.8-8.3-4v-29.7h8.3V551.3z M208.3,510H200v-7.7h8.3V510z
			 M159.6,469.5c6.6,0,12,5.4,12,12s-5.4,12-12,12c-6.6,0-12-5.4-12-12S153,469.5,159.6,469.5z M194,502.3v7.7h-67.3v-7.7H194z
			 M120.6,502.3v7.7h-8.3v-7.7H120.6z M112.3,517.7h8.3v29.7c-2.8,0.8-5.6,1.7-8.3,2.6V517.7z M126.6,545.7v-28.1H194V545
			c-2.4-0.9-4.8-1.5-7-2C169.6,539.5,147.2,540.7,126.6,545.7z M318.3,616.3c-3.5-0.3-7.7-1.6-12.5-3.7
			c11.7-7.5,30.3-18.6,54.1-29.3v30.1C344.7,615.3,329.4,617.2,318.3,616.3z M381.1,610.8v-36.3c16.3-6.2,34.4-11.9,53.8-16.1v58.5
			c-9.9-1.3-18.2-3.2-23.3-5.2C405.5,609.1,394.2,609.5,381.1,610.8z M456.6,618.9v-64.5c14.5-2.2,29.5-3.4,45-3.4
			c10.9,0,21.7,0.6,32.3,1.6v60.1c-11.1,0.8-21,2-28.3,3.6C492.2,619.2,473.9,619.8,456.6,618.9z M557.1,611.5v-55.8
			c20,3.4,38.9,8.2,56.3,13.8v44.1C603.9,611.5,580.6,610.8,557.1,611.5z M636.6,616.8v-39c31,11.9,55.1,24.9,68.6,32.8
			c-1.4,0.4-2.6,0.8-3.6,1.1C688.1,615.4,658.1,617.5,636.6,616.8z"/>
		<circle class="st2" cx="956.8" cy="136.6" r="60"/>
		<path class="st2" d="M397.1,115.7c0,0-23-23-38.5-15s-25.5,2.6-51.5-1.7c-26-4.3-39-36.3-68-28.3s-34,21.7-55,21.9
			c-21,0.1-56.3-6.1-70.7,0c-14.3,6.1-35.3,11.1-32.3,23.1H397.1z"/>
		<path class="st2" d="M974.3,273.1c-12,2-16.7,4.5-23.9,0.8c-7.2-3.7-17.8,6.9-17.8,6.9H1079c1.4-5.6-8.3-7.9-15-10.7
			c-6.6-2.8-23,0.1-32.7,0c-9.7-0.1-12-6.4-25.5-10.1C992.4,256.3,986.4,271.2,974.3,273.1z"/>
		<path class="st2" d="M827.1,177c-14.5-10-30.5,7-46.7-6s-30.8-8-45.8,6c-15,14-23,15-39.4,9c-16.5-6-32.5,15-32.5,15h218.6
			C874.8,174,841.6,187,827.1,177z"/>
		<path class="st2" d="M103.3,387.1c-7.2-5-15.2,3.5-23.2-3c-8.1-6.5-15.3-4-22.7,3c-7.5,7-11.4,7.5-19.6,4.5S21.6,399,21.6,399
			h108.6C127,385.6,110.5,392,103.3,387.1z"/>
		<path class="st2" d="M365.8,242c-13.7,7.7-45-2.3-51.1,18.5h206.6c0,0-15.2-16.2-30.7-11.6c-15.6,4.6-23.1,3.9-37.3-6.9
			c-14.2-10.8-27.9-14.6-43.3-4.6S379.5,234.3,365.8,242z"/>
		<path class="st2" d="M700.4,411.9c-7.5,2.2-11.1,1.9-18-3.3c-6.8-5.2-13.4-7.1-20.8-2.2c-7.4,4.8-14.7-1.5-21.3,2.2
			c-6.6,3.7-21.7-1.1-24.6,8.9h99.5C715.2,417.5,707.9,409.7,700.4,411.9z"/>
		<path class="st2" d="M77.6,159.3c7-11,22.5,0.5,22.5,0.5c-11-20-22-7-22-7c-13-10.5-21.5,3.5-21.5,3.5
			C71.6,148.3,77.6,159.3,77.6,159.3z"/>
		<path class="st2" d="M276.9,245.3c-8.3-6.7-13.8,2.2-13.8,2.2c9.6-5.1,13.5,1.9,13.5,1.9c4.5-7.1,14.4,0.3,14.4,0.3
			C284,237,276.9,245.3,276.9,245.3z"/>
		<path class="st2" d="M114.9,408.3c-8.3-6.7-13.8,2.2-13.8,2.2c9.6-5.1,13.5,1.9,13.5,1.9c4.5-7.1,14.4,0.3,14.4,0.3
			C122,400,114.9,408.3,114.9,408.3z"/>
		<path class="st2" d="M977.4,221.3c-8.3-6.7-13.8,2.2-13.8,2.2c9.6-5.1,13.5,1.9,13.5,1.9c4.5-7.1,14.4,0.3,14.4,0.3
			C984.4,213,977.4,221.3,977.4,221.3z"/>
		<path class="st2" d="M1000.8,215.8c3.5-5.5,11.3,0.3,11.3,0.3c-5.5-10.1-11.1-3.5-11.1-3.5c-6.5-5.3-10.8,1.8-10.8,1.8
			C997.8,210.3,1000.8,215.8,1000.8,215.8z"/>
		<path class="st2" d="M751.4,123.3c3.5-5.5,11.3,0.3,11.3,0.3c-5.5-10.1-11.1-3.5-11.1-3.5c-6.5-5.3-10.8,1.8-10.8,1.8
			C748.4,117.7,751.4,123.3,751.4,123.3z"/>
		<path class="st2" d="M719.6,395c-6.5-5.3-10.8,1.8-10.8,1.8c7.6-4,10.6,1.5,10.6,1.5c3.5-5.5,11.3,0.3,11.3,0.3
			C725.2,388.5,719.6,395,719.6,395z"/>
		<circle class="st2" cx="159.6" cy="481.5" r="9"/>
	</g>
</g>
<g id="Designed_by_Vecteezy">
</g>
</svg>
